<?xml version="1.0" encoding="utf-8"?>
<!-- Generator: Adobe Illustrator 25.2.1, SVG Export Plug-In . SVG Version: 6.00 Build 0)  -->
<svg version="1.1" id="Capa_1" xmlns="http://www.w3.org/2000/svg" xmlns:xlink="http://www.w3.org/1999/xlink" x="0px" y="0px"
	 viewBox="0 0 648.38 180.69" style="enable-background:new 0 0 648.38 180.69;" xml:space="preserve">
<style type="text/css">
	.st0{fill:#D7D9DB;}
	.st1{fill:url(#SVGID_1_);}
	.st2{fill:url(#SVGID_2_);}
</style>
<g>
	<g>
		<g>
			<path class="st0" d="M296.13,148.63l-38.98-72.88v72.88c0,4.89-5.98,7.43-11.78,7.43c-5.98,0-11.78-2.54-11.78-7.43V30.97
				c0-5.08,5.8-7.43,11.78-7.43c8.52,0,11.96,1.81,17.58,12.51l34.99,67.62V30.79c0-5.08,5.8-7.25,11.78-7.25
				c5.8,0,11.78,2.17,11.78,7.25v117.84c0,4.89-5.98,7.43-11.78,7.43C304.11,156.06,299.21,154.25,296.13,148.63z"/>
			<path class="st0" d="M406.18,30.79c0-5.08,5.8-7.25,11.78-7.25c5.8,0,11.78,2.17,11.78,7.25v84.84
				c0,30.28-19.22,41.52-43.51,41.52c-24.47,0-43.51-11.24-43.51-41.52V30.79c0-5.08,5.8-7.25,11.78-7.25
				c5.8,0,11.78,2.17,11.78,7.25v84.84c0,14.14,7.43,20.85,19.94,20.85c12.51,0,19.94-6.71,19.94-20.85V30.79z"/>
			<path class="st0" d="M513.86,30.79c0-5.08,5.8-7.25,11.78-7.25c5.8,0,11.78,2.17,11.78,7.25v84.84
				c0,30.28-19.22,41.52-43.51,41.52c-24.47,0-43.51-11.24-43.51-41.52V30.79c0-5.08,5.8-7.25,11.78-7.25
				c5.8,0,11.78,2.17,11.78,7.25v84.84c0,14.14,7.43,20.85,19.94,20.85c12.51,0,19.94-6.71,19.94-20.85V30.79z"/>
			<path class="st0" d="M558.64,30.79c0-5.08,5.8-7.25,11.78-7.25c5.8,0,11.78,2.17,11.78,7.25v49.49l39.16-53.3
				c1.81-2.54,3.99-3.44,6.53-3.44c5.98,0,13.6,6.16,13.6,12.15c0,1.27-0.18,2.9-1.45,4.53l-32.45,40.61l39.52,60.19
				c0.91,1.27,1.27,2.72,1.27,4.17c0,5.8-7.25,11.78-14.14,11.78c-3.08,0-6.16-1.27-8.16-4.53L592,100.77l-9.79,12.33v35.53
				c0,4.89-5.98,7.43-11.78,7.43c-5.98,0-11.78-2.54-11.78-7.43V30.79z"/>
		</g>
		<g>
			<linearGradient id="SVGID_1_" gradientUnits="userSpaceOnUse" x1="115.8185" y1="27.2098" x2="115.8185" y2="168.9156">
				<stop  offset="0" style="stop-color:#165266"/>
				<stop  offset="0.071" style="stop-color:#206276"/>
				<stop  offset="0.2732" style="stop-color:#38899F"/>
				<stop  offset="0.4715" style="stop-color:#4BA8BF"/>
				<stop  offset="0.6622" style="stop-color:#58BED6"/>
				<stop  offset="0.8421" style="stop-color:#60CBE3"/>
				<stop  offset="1" style="stop-color:#63D0E8"/>
			</linearGradient>
			<path class="st1" d="M147.5,11.77c4.77,4.26,7.78,10.85,7.78,18.84c0,8.05,0,80.25,0,80.25c0,19.6-16.04,35.55-35.64,35.55
				c-19.6,0-35.55-15.95-35.55-35.55c0,0,0.15-53.65,0.15-68.74c0-12.58-5.51-23.86-14.25-31.58C52.35-2.82,40.84,7.6,42.12,11.77
				c4.77,4.26,7.78,10.85,7.78,18.84c0,8.05,0,80.25,0,80.25c0,38.57,31.17,69.83,69.74,69.83c38.57,0,69.83-31.26,69.83-69.83
				c0,0,0.15-53.65,0.15-68.74c0-12.58-5.51-23.86-14.25-31.58C159.5,0.44,147.2,1.94,147.5,11.77z"/>
			<linearGradient id="SVGID_2_" gradientUnits="userSpaceOnUse" x1="87.6805" y1="166.365" x2="87.6805" y2="14.8689">
				<stop  offset="0" style="stop-color:#353562"/>
				<stop  offset="0.1459" style="stop-color:#344573"/>
				<stop  offset="0.5197" style="stop-color:#326B9B"/>
				<stop  offset="0.8174" style="stop-color:#3082B3"/>
				<stop  offset="1" style="stop-color:#308ABC"/>
			</linearGradient>
			<path class="st2" d="M147.5,0c-23.26,0-42.12,18.86-42.12,42.12c0,8.83,0,28.17,0,36.75v31.98c0,19.6-15.95,35.55-35.55,35.55
				s-35.55-15.95-35.55-35.55V78.87h0.06c0-5.04,0-43.72,0-48.27c0-19.46,17.82-30.6,35.64-20.06C62.56,3.98,52.8,0,42.12,0
				C18.86,0,0,18.86,0,42.12c0,8.83,0,28.17,0,36.75v31.98c0,38.57,31.26,69.83,69.83,69.83c38.57,0,69.83-31.26,69.83-69.83V78.87
				h0.06c0-5.04,0-43.72,0-48.27c0-19.46,17.82-30.6,35.64-20.06C167.94,3.98,158.18,0,147.5,0z"/>
		</g>
	</g>
</g>
</svg>
